<?xml version="1.0" encoding="UTF-8" standalone="no"?>
<!-- Created with Inkscape (http://www.inkscape.org/) -->

<svg
   xmlns:dc="http://purl.org/dc/elements/1.1/"
   xmlns:cc="http://creativecommons.org/ns#"
   xmlns:rdf="http://www.w3.org/1999/02/22-rdf-syntax-ns#"
   xmlns:svg="http://www.w3.org/2000/svg"
   xmlns="http://www.w3.org/2000/svg"
   xmlns:sodipodi="http://sodipodi.sourceforge.net/DTD/sodipodi-0.dtd"
   xmlns:inkscape="http://www.inkscape.org/namespaces/inkscape"
   width="512"
   height="512"
   viewBox="0 0 135.46666 135.46667"
   version="1.1"
   id="svg8"
   inkscape:version="0.92.4 (33fec40, 2019-01-16)"
   sodipodi:docname="logo_icon_background_filled.svg"
   inkscape:export-filename="logo_icon_background_filled.png"
   inkscape:export-xdpi="96"
   inkscape:export-ydpi="96">
  <defs
     id="defs2" />
  <sodipodi:namedview
     id="base"
     pagecolor="#ffffff"
     bordercolor="#666666"
     borderopacity="1.0"
     inkscape:pageopacity="0.0"
     inkscape:pageshadow="2"
     inkscape:zoom="0.7071068"
     inkscape:cx="148.76363"
     inkscape:cy="133.23949"
     inkscape:document-units="mm"
     inkscape:current-layer="g4568"
     showgrid="false"
     units="px"
     inkscape:window-width="1373"
     inkscape:window-height="872"
     inkscape:window-x="67"
     inkscape:window-y="0"
     inkscape:window-maximized="1"
     showguides="false" />
  <metadata
     id="metadata5">
    <rdf:RDF>
      <cc:Work
         rdf:about="">
        <dc:format>image/svg+xml</dc:format>
        <dc:type
           rdf:resource="http://purl.org/dc/dcmitype/StillImage" />
        <dc:title></dc:title>
      </cc:Work>
    </rdf:RDF>
  </metadata>
  <g
     inkscape:label="Layer 1"
     inkscape:groupmode="layer"
     id="layer1"
     transform="translate(0,-161.53331)">
    <g
       id="g4568"
       transform="matrix(1.318298,0,0,1.3182986,-21.270517,-63.188231)">
      <g
         id="g4601"
         transform="translate(1.9527324,11.232405)"
         style="stroke-width:0.07878965;stroke-miterlimit:4;stroke-dasharray:none">
        <rect
           id="rect3835"
           width="94.893654"
           height="94.893654"
           x="18.114656"
           y="163.16344"
           style="fill:#006aa7;fill-opacity:1;stroke:#000000;stroke-width:0.0151701;stroke-opacity:1"
           ry="15.424302" />
        <path
           id="path4594"
           style="opacity:0.95999995;fill:#fecb00;fill-opacity:1;stroke:#fecb00;stroke-width:2.12307525;stroke-linecap:round;stroke-linejoin:miter;stroke-miterlimit:4;stroke-dasharray:none;stroke-opacity:1"
           d="M 76.034911,215.54617 98.72187,191.10149 M 71.610506,211.22352 102.81067,178.0926 m -35.224229,29.18682 26.009564,-27.8729 m -30.614989,23.49534 20.157798,-21.33987 v 0 M 41.10861,209.07058 c 0,0 0.556174,-0.67164 1.482361,-1.67988 3.273053,-3.56306 11.166992,-11.32988 15.465921,-8.51479 1.345528,0.88109 3.00143,2.2678 4.924124,4.02595 1.399407,1.27966 2.940149,2.75608 4.605425,4.37756 1.271272,1.23783 2.615118,2.5602 4.024065,3.9441 1.411932,1.38682 2.889241,2.83541 4.424405,4.32265 9.025068,8.74324 20.049704,18.82136 31.545599,25.52898 4.93523,2.87961 -21.536635,3.75583 -31.254099,0 -14.795868,-5.71865 -20.421934,-26.28592 -35.217801,-32.00457 -5.957424,-2.30256 -19.160749,0 -19.160749,0"
           inkscape:connector-curvature="0"
           sodipodi:nodetypes="ccccccccccsssssssssc" />
      </g>
    </g>
  </g>
</svg>
