<?xml version="1.0" standalone="no"?>
<!DOCTYPE svg PUBLIC "-//W3C//DTD SVG 20010904//EN"
 "http://www.w3.org/TR/2001/REC-SVG-20010904/DTD/svg10.dtd">
<svg version="1.0" xmlns="http://www.w3.org/2000/svg"
 width="513.000000pt" height="513.000000pt" viewBox="0 0 513.000000 513.000000"
 preserveAspectRatio="xMidYMid meet">
<metadata>
Created by potrace 1.11, written by Peter Selinger 2001-2013
</metadata>
<g transform="translate(0.000000,513.000000) scale(0.100000,-0.100000)"
fill="#000000" stroke="none">
<path d="M4605 4450 c-16 -6 -151 -144 -284 -289 -39 -43 -300 -320 -383 -406
-42 -44 -85 -89 -95 -101 -15 -18 -93 -101 -323 -343 -109 -116 -322 -341
-373 -396 -30 -33 -98 -105 -151 -160 l-95 -100 -50 50 -50 50 62 66 c34 37
105 113 157 169 52 56 109 116 125 134 17 17 86 92 155 165 69 74 139 149 156
167 17 18 72 77 121 131 50 54 106 114 125 133 32 34 238 254 307 329 18 20
53 57 76 82 134 143 148 172 103 224 -46 51 -93 40 -167 -42 -47 -51 -86 -92
-301 -323 -156 -167 -151 -161 -295 -316 -60 -65 -140 -150 -177 -189 -36 -38
-76 -81 -88 -95 -12 -13 -51 -56 -88 -95 -119 -126 -308 -329 -347 -372 -21
-24 -42 -43 -48 -43 -5 0 -36 27 -70 60 l-61 60 46 47 c25 27 58 62 74 79 16
17 97 102 179 189 83 88 184 195 225 239 41 43 91 96 110 116 19 20 98 103
175 185 77 82 150 158 162 170 117 120 134 159 90 211 -18 21 -33 27 -62 27
-42 0 -19 22 -325 -302 -80 -85 -163 -173 -185 -196 -22 -23 -103 -109 -180
-191 -77 -82 -177 -187 -221 -234 -45 -47 -110 -115 -144 -152 -35 -38 -66
-68 -69 -68 -4 0 -31 20 -60 45 -88 75 -178 136 -229 154 -204 75 -530 -110
-898 -512 -51 -54 -52 -55 -90 -47 -99 22 -213 33 -362 33 -101 0 -336 -11
-362 -18 -8 -2 -42 -6 -75 -10 -232 -24 -285 -44 -285 -107 0 -65 46 -100 114
-87 22 4 68 10 101 14 33 4 70 8 83 10 13 2 53 7 90 10 37 4 87 8 112 11 62 6
389 6 420 -1 14 -3 45 -8 70 -11 169 -22 411 -163 610 -356 120 -116 195 -201
365 -417 346 -440 405 -510 530 -636 113 -112 190 -177 305 -254 196 -131 344
-186 630 -236 47 -8 114 -17 150 -20 36 -4 76 -8 90 -11 120 -19 722 -26 894
-11 294 27 396 72 396 177 0 50 -25 75 -163 162 -381 237 -850 601 -1203 933
-11 11 -70 65 -129 120 -60 55 -141 132 -181 170 l-73 70 47 52 c26 28 90 98
143 155 53 57 111 119 129 138 17 19 57 62 88 95 62 66 255 274 293 316 13 15
74 80 134 145 61 65 121 130 135 145 14 15 72 77 130 139 104 112 128 144 124
168 -1 6 -2 19 -3 27 -2 25 -49 63 -73 60 -13 -1 -28 -3 -34 -4 -14 -1 -31
-18 -164 -162 -63 -68 -144 -155 -180 -194 -36 -38 -93 -99 -125 -134 -33 -36
-92 -99 -131 -140 -38 -42 -104 -112 -144 -156 -41 -44 -97 -105 -126 -135
-28 -30 -64 -68 -79 -85 -14 -16 -74 -80 -131 -142 -58 -62 -114 -123 -125
-137 -11 -15 -25 -26 -30 -26 -13 0 -121 109 -117 119 2 8 79 90 308 331 66
69 288 305 320 340 18 19 89 95 159 169 69 73 142 150 161 171 19 20 94 99
166 176 72 76 146 155 164 174 18 19 90 96 160 170 70 74 151 160 180 190 65
69 81 104 68 142 -15 43 -69 67 -113 48z m-2480 -1318 c88 -60 281 -232 480
-426 262 -256 656 -639 690 -671 22 -20 87 -81 144 -134 58 -53 116 -107 131
-121 68 -63 301 -265 433 -373 215 -177 542 -414 737 -535 19 -12 28 -22 20
-23 -30 -1 -96 -9 -125 -15 -49 -9 -623 -12 -715 -4 -47 5 -119 11 -160 14
-125 10 -358 46 -425 66 -16 5 -55 17 -85 26 -111 33 -317 147 -405 224 -206
180 -338 329 -660 745 -300 388 -552 629 -784 750 l-54 29 134 130 c212 207
379 320 514 349 38 9 90 -4 130 -31z"/>
</g>
</svg>
