<?xml version="1.0" standalone="no"?>
<!DOCTYPE svg PUBLIC "-//W3C//DTD SVG 20010904//EN"
 "http://www.w3.org/TR/2001/REC-SVG-20010904/DTD/svg10.dtd">
<svg version="1.0" xmlns="http://www.w3.org/2000/svg"
 width="513.000000pt" height="513.000000pt" viewBox="0 0 513.000000 513.000000"
 preserveAspectRatio="xMidYMid meet">
<metadata>
Created by potrace 1.11, written by Peter Selinger 2001-2013
</metadata>
<g transform="translate(0.000000,513.000000) scale(0.100000,-0.100000)"
fill="#000000" stroke="none">
<path d="M4605 4450 c-17 -7 -104 -95 -275 -280 -49 -53 -305 -324 -392 -415
-42 -44 -85 -90 -95 -102 -10 -11 -81 -87 -158 -168 -77 -82 -156 -165 -175
-185 -19 -21 -96 -102 -171 -181 -74 -79 -161 -171 -192 -204 -30 -33 -98
-105 -151 -160 l-95 -100 -50 50 -50 50 62 67 c34 36 105 113 158 170 53 56
110 117 125 133 16 17 85 91 154 165 69 74 153 164 187 200 33 36 75 81 93
100 18 19 85 91 149 160 114 121 202 215 277 296 20 22 56 60 79 85 100 106
125 140 125 169 0 41 -38 81 -79 85 -36 3 -58 -15 -211 -180 -76 -82 -310
-333 -392 -420 -31 -33 -69 -73 -84 -90 -15 -16 -81 -88 -148 -159 -67 -71
-125 -134 -131 -140 -5 -7 -41 -45 -80 -87 -195 -208 -326 -348 -360 -386 -21
-24 -42 -43 -48 -43 -5 0 -36 27 -70 60 l-61 60 46 47 c25 27 58 62 74 79 109
116 368 390 514 544 19 20 96 102 170 181 74 78 147 155 162 171 122 122 140
162 95 214 -18 21 -33 27 -62 27 -34 0 -45 -7 -109 -74 -63 -66 -291 -307
-401 -424 -22 -24 -102 -108 -178 -188 -76 -81 -151 -159 -165 -176 -70 -78
-267 -281 -272 -281 -3 0 -30 20 -59 45 -88 75 -178 136 -229 154 -172 63
-429 -56 -721 -333 -68 -65 -177 -177 -208 -213 -17 -19 -24 -21 -59 -13 -98
22 -221 33 -369 33 -111 0 -308 -11 -395 -23 -36 -5 -90 -12 -120 -15 -106
-13 -154 -25 -177 -47 -32 -30 -31 -81 3 -115 24 -23 30 -25 92 -19 37 3 78 8
92 10 51 9 121 16 285 31 69 7 390 8 420 1 11 -2 45 -7 75 -11 177 -24 407
-160 620 -367 131 -127 193 -201 562 -669 100 -126 113 -143 198 -239 309
-353 593 -533 955 -606 72 -15 200 -34 255 -39 36 -3 74 -8 85 -10 92 -19 727
-28 890 -13 303 29 405 74 405 180 0 50 -29 77 -200 183 -185 116 -397 266
-580 411 -115 91 -294 237 -310 254 -3 3 -39 34 -80 70 -88 76 -126 111 -317
287 -55 51 -136 127 -181 170 l-81 78 36 40 c19 22 84 92 143 155 59 63 122
131 140 150 71 77 238 258 296 320 34 36 72 77 85 91 20 22 98 106 273 293
210 226 246 266 247 278 1 4 2 14 3 21 4 27 -18 68 -43 81 -59 31 -66 25 -352
-284 -73 -80 -157 -170 -185 -200 -28 -30 -62 -67 -75 -81 -13 -15 -74 -80
-135 -145 -61 -66 -133 -143 -160 -172 -53 -58 -70 -77 -237 -256 -60 -63
-118 -127 -129 -141 -11 -14 -24 -25 -29 -25 -13 0 -121 109 -117 119 2 5 62
71 134 147 72 77 147 155 165 175 19 20 91 97 160 170 70 74 143 152 164 174
20 22 94 100 163 174 70 73 143 150 162 171 19 20 94 99 166 176 72 76 146
155 164 174 31 34 236 251 339 360 66 69 82 103 69 142 -10 28 -53 59 -80 57
-7 0 -22 -4 -33 -9z"/>
</g>
</svg>
